<svg height="512pt" viewBox="-95 0 512 512" width="512pt" xmlns="http://www.w3.org/2000/svg"><path d="m307.230469 296.082031c-8.28125 0-15 6.714844-15 15v170.917969h-262.230469v-283.429688h91.835938c8.285156 0 15-6.714843 15-15v-91.835937h39.503906c8.285156 0 15-6.714844 15-15s-6.714844-15-15-15h-54.503906c-4.746094 0-7.585938 1.324219-10.605469 4.394531l-106.835938 106.835938c-1.78125 1.875-4.394531 4.460937-4.394531 10.605468v313.429688c0 8.285156 6.714844 15 15 15h292.230469c8.285156 0 15-6.714844 15-15v-185.917969c0-8.285156-6.714844-15-15-15zm-200.394531-183.132812v55.621093h-55.621094zm0 0"/><path d="m260.199219 61.964844c-8.285157 0-15 6.714844-15 15v60.472656c0 21.238281 17.277343 38.515625 38.515625 38.515625 21.238281 0 38.519531-17.277344 38.519531-38.515625v-78.578125c-.003906-32.453125-26.40625-58.859375-58.863281-58.859375-32.457032 0-58.859375 26.40625-58.859375 58.859375v162.566406c0 32.453125 26.402343 58.859375 58.859375 58.859375 32.457031 0 58.859375-26.40625 58.859375-58.859375v-32.105469c0-8.28125-6.714844-15-15-15-8.285157 0-15 6.71875-15 15v32.105469c0 15.914063-12.945313 28.859375-28.859375 28.859375-15.914063 0-28.859375-12.945312-28.859375-28.859375v-162.566406c0-15.914063 12.945312-28.859375 28.859375-28.859375 15.914062 0 28.859375 12.945312 28.859375 28.859375v78.578125c0 4.695312-3.820313 8.515625-8.515625 8.515625-4.699219 0-8.519532-3.820313-8.519532-8.515625v-60.472656c.003907-8.285156-6.710937-15-14.996093-15zm0 0"/></svg>