<svg xmlns="http://www.w3.org/2000/svg" viewBox="0 0 512 512">
  <path d="M352.399 96.4c-34.986 0-68.75 11.436-96.398 32.418-27.651-20.983-61.414-32.418-96.4-32.418C71.597 96.4 0 167.996 0 256s71.597 159.6 159.601 159.6c34.986 0 68.75-11.436 96.4-32.417 27.648 20.982 61.411 32.417 96.398 32.417C440.403 415.6 512 344.004 512 256S440.403 96.4 352.399 96.4zM256 169.418a131.104 131.104 0 0 1 13.355 17.697h-26.711A131.028 131.028 0 0 1 256 169.418zm-27.255 47.697h54.51A128.34 128.34 0 0 1 288.339 241H223.66a128.296 128.296 0 0 1 5.085-23.885zM223.66 271h64.679a128.357 128.357 0 0 1-5.084 23.885h-54.51A128.296 128.296 0 0 1 223.66 271zm32.341 71.584a131.2 131.2 0 0 1-13.357-17.699h26.712a131.333 131.333 0 0 1-13.355 17.699zm96.398 43.016c-26.596 0-52.322-8.13-73.916-23.144 12.373-13.836 22.35-29.819 29.247-46.977 7.61-18.929 11.47-38.941 11.47-59.479 0-20.538-3.859-40.55-11.47-59.48-6.896-17.156-16.874-33.14-29.247-46.976 21.594-15.014 47.32-23.145 73.916-23.145C423.862 126.4 482 184.538 482 256s-58.138 129.6-129.601 129.6z"/>
</svg>
