<svg xmlns="http://www.w3.org/2000/svg" viewBox="0 0 1000 1000"><path d="M708.53 15.27c-5.4 3.6-29.93 21.6-54.45 39.83l-44.33 33.3-225 267.52C260.77 503.3 157.73 627.95 154.8 633.8c-7.65 15.52-7.2 40.05.9 55.57l6.07 11.48-13.05 12.83-12.82 12.82-10.13-4.5c-31.73-13.95-75.82-3.82-96.52 22.28-21.6 27.22-25.2 62.33-9.9 92.7 5.4 10.8 111.82 124.42 129.37 138.38 15.52 12.15 31.5 17.1 53.77 15.97 33.75-1.58 60.98-18.67 74.02-46.58 5.18-11.02 5.85-15.52 5.85-35.1 0-18.9-.9-24.08-5.17-32.63l-4.95-9.9 12.6-12.82 12.6-12.6 12.6 5.17c16.43 6.75 40.28 7.2 53.33 1.13 4.95-2.47 130.5-107.1 279-232.87l270-228.82 38.7-52.2c21.38-28.8 38.7-54.23 38.92-56.48 0-2.7-11.7-16.2-28.58-33.52C904.05 186.05 722.7 8.52 720.67 8.52c-1.12 0-6.52 2.93-12.14 6.75zm219.14 311.18l-35.55 46.35-266.4 225.23C417.37 773.97 357.08 823.7 350.1 825.5c-18.68 4.95-18.68 4.95-94.5-69.3-38.48-37.8-71.77-72.22-74.02-76.27-5.63-11.03-6.98-25.2-3.38-35.78 2.25-6.3 70.2-88.42 226.57-273.37L628.2 106.4l46.35-34.42 46.35-34.43 121.27 121.28L963.45 280.1l-35.78 46.35zM269.55 833.6l-11.92 11.92-52.2-52.2L153 740.9l11.7-11.7 11.92-11.92 52.2 52.2 52.42 52.42-11.69 11.7zm-151.43-88.2c7.88 3.83 22.27 16.42 46.58 40.95l35.55 35.55-43.42 43.42-43.43 43.43-36-36.67c-36.45-37.13-43.42-46.8-46.8-65.47-3.38-18.67 8.1-47.03 23.85-58.5 15.53-11.49 43.42-12.61 63.67-2.71zm79.43 160.2l-43.42 43.42-10.58-10.58-10.8-10.8 43.2-43.2 43.42-43.42 10.58 10.58 10.8 10.8-43.2 43.2zm63.22-10.35c6.3 19.13-6.07 49.5-25.65 63.23-11.02 7.65-30.15 11.92-43.87 9.9-20.02-2.92-20.25-2.47 22.5-45.22 21.6-21.6 40.27-39.15 41.63-38.7 1.12.44 3.6 5.16 5.39 10.79z"/><path d="M550.58 337.92c-15.75 5.63-31.28 19.35-55.8 49.27-.9 1.13-5.85-.9-10.8-4.27-12.38-8.1-29.7-9.9-42.08-4.05-21.38 9.9-41.4 39.38-50.63 74.02-5.85 21.83-7.2 76.95-2.25 99 4.73 22.05 17.1 44.55 31.95 58.28 15.75 14.62 28.13 19.35 50.63 19.35 49.05 0 83.25-35.55 108.9-113.17l10.13-30.83 24.75-.9c27.45-.68 43.88-5.4 67.95-19.58 21.15-12.38 47.92-40.73 58.05-61.2 12.6-25.43 13.72-47.7 2.92-57.83-8.77-8.1-18.45-5.63-34.2 8.55-4.72 4.28-13.27 9.68-18.9 12.15-9 4.05-12.6 4.5-29.48 2.92-10.57-1.13-25.43-1.8-33.07-2.02-13.5 0-13.73-.23-18.45-8.55-11.7-20.01-36.9-29.01-59.62-21.14zm31.27 28.13c4.72 2.93 8.55 7.88 11.25 15.3 5.85 16.2 6.97 17.1 18.9 15.3 10.13-1.8 15.3-1.8 55.8-.67 23.63.67 35.1-2.7 51.53-15.3 17.55-13.5-.68 18.68-24.08 42.08-30.38 30.36-69.08 44.54-100.58 36.66-13.95-3.6-14.85-3.38-18.67.45-2.02 2.48-9.22 20.02-15.75 39.15-19.8 58.28-37.35 85.95-63.23 100.13-15.52 8.33-34.42 9-48.38 1.8-45.66-24.08-53.54-126.9-13.94-182.03 7.88-11.25 18.9-18.9 26.32-18.9 3.15 0 9.45 4.73 16.65 12.15 10.8 11.25 14.4 13.5 20.93 12.83 1.57 0 6.98-6.98 12.38-15.08 11.7-18 33.52-40.73 43.2-44.77 10.12-4.5 19.57-4.05 27.67.9z"/></svg>