<?xml version="1.0" encoding="utf-8"?>
<!-- Svg Vector Icons : http://www.onlinewebfonts.com/icon -->
<!DOCTYPE svg PUBLIC "-//W3C//DTD SVG 1.1//EN" "http://www.w3.org/Graphics/SVG/1.1/DTD/svg11.dtd">
<svg version="1.1" xmlns="http://www.w3.org/2000/svg" xmlns:xlink="http://www.w3.org/1999/xlink" x="0px" y="0px" viewBox="0 0 1000 1000" enable-background="new 0 0 1000 1000" xml:space="preserve">
<metadata> Svg Vector Icons : http://www.onlinewebfonts.com/icon </metadata>
<g><g transform="translate(0.000000,511.000000) scale(0.100000,-0.100000)"><path d="M2001.9,4994.2c-36.6-11.5-102-57.7-148.2-102c-165.5-167.4-165.5-409.9,1.9-577.4c80.8-80.8,157.8-105.8,352.2-121.3l171.3-11.5l9.6-463.8c9.6-515.8,42.3-737.1,152-1046.9c182.8-523.5,444.6-864.1,1118.1-1462.6C4124.6,796.9,4244,664.1,4344,454.3c65.4-136.7,69.3-154,69.3-346.4s-3.9-209.8-69.3-346.4c-90.5-190.5-217.5-338.7-502.3-590.8c-477.3-421.5-644.7-583.1-779.4-739c-338.7-402.2-523.5-775.6-625.5-1266.3c-28.9-142.4-40.4-294.5-48.1-660.1l-11.5-477.3h-88.5c-279.1,0-431.1-73.1-513.8-244.4c-44.3-86.6-50-119.3-40.4-209.8c13.5-130.9,78.9-236.7,190.5-309.9l80.8-53.9h2994.5h2994.5l80.8,53.9c111.6,73.1,177.1,179,190.5,309.9c9.6,90.4,3.9,123.2-40.4,209.8c-82.7,171.3-234.8,244.4-513.8,244.4h-88.5l-11.5,477.3c-11.6,521.5-36.6,694.8-146.3,1020c-173.2,519.6-444.6,877.6-1118.1,1476.1c-535,475.4-646.6,606.2-731.3,854.5c-52,154-52,350.3,1.9,506.2c82.7,246.3,240.6,427.2,816,933.4c583.1,511.9,862.2,891,1031.5,1395.3c109.7,325.2,134.7,500.4,146.3,1018.1l11.5,473.4l169.4,11.5c200.2,15.4,273.3,42.3,358,129c182.8,188.6,148.2,483.1-75.1,629.3l-80.8,53.9l-2963.7,3.9C3173.9,5011.6,2042.3,5005.8,2001.9,4994.2z M7284.7,3722.1c-9.6-408-15.4-492.7-57.7-669.7c-82.7-350.3-190.5-588.9-384.9-856.4c-167.4-230.9-300.2-367.6-708.2-733.3c-448.4-398.4-579.3-535-700.5-729.4c-138.6-223.2-173.2-344.5-173.2-625.5c0-211.7,5.8-257.9,50-377.2c103.9-284.8,282.9-502.3,744.8-906.4c669.7-583.1,943-931.5,1098.9-1401c103.9-313.7,119.3-427.2,130.9-927.6l11.5-467.7h-2294H2710.1v361.8c0,411.9,19.2,612,86.6,866c140.5,531.2,398.4,904.5,987.3,1422.2c600.5,527.3,800.6,760.2,906.5,1050.8c42.3,121.2,50,167.4,48.1,379.1c0,200.1-5.8,261.7-42.3,361.8c-103.9,290.6-288.7,517.7-748.6,919.9c-775.6,677.4-1023.8,1029.6-1174,1662.8c-40.4,175.1-48.1,263.7-57.7,669.7l-11.5,465.7h2295.9h2295.9L7284.7,3722.1z"/><path d="M2960.3,2965.8c0-34.6,127-344.5,184.8-450.3c159.7-290.6,340.6-492.7,844.9-943c510-454.2,652.4-613.9,794.8-896.8c71.2-142.4,98.2-238.6,127-450.3C4934.9,50.2,4967.6,0.1,5033,42.5c25,15.4,40.4,69.3,57.7,194.4c67.4,502.3,229,729.4,1008.4,1416.4c513.8,452.3,735.2,739,883.4,1147c32.7,86.6,57.7,161.7,57.7,165.5c0,5.8-918,9.6-2040,9.6S2960.3,2971.6,2960.3,2965.8z"/><path d="M4961.8-117.3c-123.2-44.3-88.5-236.7,42.3-236.7c84.7,0,144.3,113.5,96.2,184.7c-13.5,19.2-90.5,67.4-103.9,63.5C4992.6-105.7,4977.2-111.5,4961.8-117.3z"/><path d="M5119.6-452.1c-102-38.5-98.2-194.4,5.8-221.3c113.6-28.9,200.2,78.9,138.6,173.2C5229.3-446.4,5179.3-431,5119.6-452.1z"/><path d="M4761.7-721.6c-59.7-48.1-65.4-117.4-11.6-171.3c75.1-75.1,211.7-21.2,211.7,84.7c0,48.1-78.9,127-125.1,127C4823.2-681.2,4790.5-698.5,4761.7-721.6z"/><path d="M5119.6-1106.5c-102-38.5-98.2-194.4,5.8-221.3c113.6-28.9,200.2,78.9,138.6,173.2C5229.3-1100.7,5179.3-1085.3,5119.6-1106.5z"/><path d="M4742.4-1551c-17.3-23.1-30.8-55.8-30.8-73.1c0-17.3,13.5-50,30.8-73.1c44.3-65.4,159.7-52,200.1,21.2c25,46.2,25,57.7,0,105.8C4902.1-1499.1,4786.7-1485.6,4742.4-1551z"/><path d="M5077.3-1951.3c-21.2-21.2-38.5-55.8-38.5-77c0-46.2,80.8-134.7,121.2-134.7c50,0,128.9,78.9,128.9,127c0,59.7-63.5,123.2-125.1,123.2C5136.9-1912.9,5098.4-1930.2,5077.3-1951.3z"/><path d="M4588.5-2276.6c-50-55.8-34.7-157.8,32.7-194.4c46.2-25,57.7-25,105.8,0c105.8,59.6,65.4,230.9-53.9,230.9C4644.3-2240,4605.8-2257.3,4588.5-2276.6z"/><path d="M4894.4-2420.9c-127-63.5-1924.5-1331.7-1924.5-1358.7c0-25,238.6-28.9,2030.4-28.9c1787.9,0,2030.4,3.9,2030.4,28.9c0,15.4-346.4,269.4-791,577.4c-744.8,515.8-787.1,548.5-733.3,562c103.9,21.2,138.6,109.7,75.1,188.6c-77,94.3-232.9,19.2-207.8-100.1c11.5-53.9,9.6-53.9-134.7,44.2C5077.3-2399.8,4986.8-2376.7,4894.4-2420.9z"/></g></g>
</svg>