<?xml version="1.0" encoding="utf-8"?><svg xmlns="http://www.w3.org/2000/svg" xmlns:xlink="http://www.w3.org/1999/xlink"><symbol viewBox="0 0 86.001 86.001" id="chevron-left" xmlns="http://www.w3.org/2000/svg"><path d="M64.998 80.095a3.484 3.484 0 0 1 0 4.893 3.401 3.401 0 0 1-4.844 0l-39.151-39.54a3.486 3.486 0 0 1 0-4.895l39.15-39.539a3.4 3.4 0 0 1 4.844 0A3.487 3.487 0 0 1 65 5.907L29.294 43.001l35.704 37.094z"/></symbol><symbol viewBox="0 0 238.003 238.003" id="chevron-right" xmlns="http://www.w3.org/2000/svg"><path d="M181.776 107.719L78.705 4.648c-6.198-6.198-16.273-6.198-22.47 0s-6.198 16.273 0 22.47l91.883 91.883-91.883 91.883c-6.198 6.198-6.198 16.273 0 22.47s16.273 6.198 22.47 0l103.071-103.039a15.741 15.741 0 0 0 4.64-11.283c0-4.13-1.526-8.199-4.64-11.313z"/></symbol><symbol viewBox="0 0 54.757 54.757" id="location" xmlns="http://www.w3.org/2000/svg"><path d="M27.557 12c-3.859 0-7 3.141-7 7s3.141 7 7 7 7-3.141 7-7-3.141-7-7-7zm0 12c-2.757 0-5-2.243-5-5s2.243-5 5-5 5 2.243 5 5-2.243 5-5 5z"/><path d="M40.94 5.617A19.052 19.052 0 0 0 27.38 0a19.05 19.05 0 0 0-13.56 5.617c-6.703 6.702-7.536 19.312-1.804 26.952L27.38 54.757 42.721 32.6c5.755-7.671 4.922-20.281-1.781-26.983zm.159 25.814L27.38 51.243 13.639 31.4C8.44 24.468 9.185 13.08 15.235 7.031 18.479 3.787 22.792 2 27.38 2s8.901 1.787 12.146 5.031c6.05 6.049 6.795 17.437 1.573 24.4z"/></symbol><symbol viewBox="0 0 1000 1000" id="sample" xmlns="http://www.w3.org/2000/svg"><path d="M708.53 15.27c-5.4 3.6-29.93 21.6-54.45 39.83l-44.33 33.3-225 267.52C260.77 503.3 157.73 627.95 154.8 633.8c-7.65 15.52-7.2 40.05.9 55.57l6.07 11.48-13.05 12.83-12.82 12.82-10.13-4.5c-31.73-13.95-75.82-3.82-96.52 22.28-21.6 27.22-25.2 62.33-9.9 92.7 5.4 10.8 111.82 124.42 129.37 138.38 15.52 12.15 31.5 17.1 53.77 15.97 33.75-1.58 60.98-18.67 74.02-46.58 5.18-11.02 5.85-15.52 5.85-35.1 0-18.9-.9-24.08-5.17-32.63l-4.95-9.9 12.6-12.82 12.6-12.6 12.6 5.17c16.43 6.75 40.28 7.2 53.33 1.13 4.95-2.47 130.5-107.1 279-232.87l270-228.82 38.7-52.2c21.38-28.8 38.7-54.23 38.92-56.48 0-2.7-11.7-16.2-28.58-33.52C904.05 186.05 722.7 8.52 720.67 8.52c-1.12 0-6.52 2.93-12.14 6.75zm219.14 311.18l-35.55 46.35-266.4 225.23C417.37 773.97 357.08 823.7 350.1 825.5c-18.68 4.95-18.68 4.95-94.5-69.3-38.48-37.8-71.77-72.22-74.02-76.27-5.63-11.03-6.98-25.2-3.38-35.78 2.25-6.3 70.2-88.42 226.57-273.37L628.2 106.4l46.35-34.42 46.35-34.43 121.27 121.28L963.45 280.1l-35.78 46.35zM269.55 833.6l-11.92 11.92-52.2-52.2L153 740.9l11.7-11.7 11.92-11.92 52.2 52.2 52.42 52.42-11.69 11.7zm-151.43-88.2c7.88 3.83 22.27 16.42 46.58 40.95l35.55 35.55-43.42 43.42-43.43 43.43-36-36.67c-36.45-37.13-43.42-46.8-46.8-65.47-3.38-18.67 8.1-47.03 23.85-58.5 15.53-11.49 43.42-12.61 63.67-2.71zm79.43 160.2l-43.42 43.42-10.58-10.58-10.8-10.8 43.2-43.2 43.42-43.42 10.58 10.58 10.8 10.8-43.2 43.2zm63.22-10.35c6.3 19.13-6.07 49.5-25.65 63.23-11.02 7.65-30.15 11.92-43.87 9.9-20.02-2.92-20.25-2.47 22.5-45.22 21.6-21.6 40.27-39.15 41.63-38.7 1.12.44 3.6 5.16 5.39 10.79z"/><path d="M550.58 337.92c-15.75 5.63-31.28 19.35-55.8 49.27-.9 1.13-5.85-.9-10.8-4.27-12.38-8.1-29.7-9.9-42.08-4.05-21.38 9.9-41.4 39.38-50.63 74.02-5.85 21.83-7.2 76.95-2.25 99 4.73 22.05 17.1 44.55 31.95 58.28 15.75 14.62 28.13 19.35 50.63 19.35 49.05 0 83.25-35.55 108.9-113.17l10.13-30.83 24.75-.9c27.45-.68 43.88-5.4 67.95-19.58 21.15-12.38 47.92-40.73 58.05-61.2 12.6-25.43 13.72-47.7 2.92-57.83-8.77-8.1-18.45-5.63-34.2 8.55-4.72 4.28-13.27 9.68-18.9 12.15-9 4.05-12.6 4.5-29.48 2.92-10.57-1.13-25.43-1.8-33.07-2.02-13.5 0-13.73-.23-18.45-8.55-11.7-20.01-36.9-29.01-59.62-21.14zm31.27 28.13c4.72 2.93 8.55 7.88 11.25 15.3 5.85 16.2 6.97 17.1 18.9 15.3 10.13-1.8 15.3-1.8 55.8-.67 23.63.67 35.1-2.7 51.53-15.3 17.55-13.5-.68 18.68-24.08 42.08-30.38 30.36-69.08 44.54-100.58 36.66-13.95-3.6-14.85-3.38-18.67.45-2.02 2.48-9.22 20.02-15.75 39.15-19.8 58.28-37.35 85.95-63.23 100.13-15.52 8.33-34.42 9-48.38 1.8-45.66-24.08-53.54-126.9-13.94-182.03 7.88-11.25 18.9-18.9 26.32-18.9 3.15 0 9.45 4.73 16.65 12.15 10.8 11.25 14.4 13.5 20.93 12.83 1.57 0 6.98-6.98 12.38-15.08 11.7-18 33.52-40.73 43.2-44.77 10.12-4.5 19.57-4.05 27.67.9z"/></symbol><symbol viewBox="0 0 451 451" id="search" xmlns="http://www.w3.org/2000/svg"><path d="M447.05 428l-109.6-109.6c29.4-33.8 47.2-77.9 47.2-126.1C384.65 86.2 298.35 0 192.35 0 86.25 0 .05 86.3.05 192.3s86.3 192.3 192.3 192.3c48.2 0 92.3-17.8 126.1-47.2L428.05 447c2.6 2.6 6.1 4 9.5 4s6.9-1.3 9.5-4c5.2-5.2 5.2-13.8 0-19zM26.95 192.3c0-91.2 74.2-165.3 165.3-165.3 91.2 0 165.3 74.2 165.3 165.3s-74.1 165.4-165.3 165.4c-91.1 0-165.3-74.2-165.3-165.4z"/></symbol><symbol viewBox="0 0 486.569 486.569" id="shopping-cart" xmlns="http://www.w3.org/2000/svg"><path d="M146.069 320.369h268.1c30.4 0 55.2-24.8 55.2-55.2v-114c0-.2 0-.4-.1-.6 0-.2-.1-.5-.1-.7s-.1-.4-.1-.6c-.1-.2-.1-.4-.2-.7-.1-.2-.1-.4-.2-.6-.1-.2-.1-.4-.2-.6-.1-.2-.2-.4-.3-.7-.1-.2-.2-.4-.3-.5l-.3-.6c-.1-.2-.2-.3-.3-.5-.1-.2-.3-.4-.4-.6-.1-.2-.2-.3-.4-.5-.1-.2-.3-.3-.4-.5s-.3-.3-.4-.5-.3-.3-.4-.4l-.5-.5c-.2-.1-.3-.3-.5-.4-.2-.1-.4-.3-.6-.4-.2-.1-.3-.2-.5-.3s-.4-.2-.6-.4l-.6-.3-.6-.3-.6-.3c-.2-.1-.4-.1-.6-.2-.2-.1-.5-.2-.7-.2s-.4-.1-.5-.1c-.3-.1-.5-.1-.8-.1-.1 0-.2-.1-.4-.1l-339.8-46.9v-47.4c0-.5 0-1-.1-1.4 0-.1 0-.2-.1-.4 0-.3-.1-.6-.1-.9-.1-.3-.1-.5-.2-.8 0-.2-.1-.3-.1-.5l-.3-.9c0-.1-.1-.3-.1-.4-.1-.3-.2-.5-.4-.8-.1-.1-.1-.3-.2-.4-.1-.2-.2-.4-.4-.6-.1-.2-.2-.3-.3-.5s-.2-.3-.3-.5-.3-.4-.4-.6l-.3-.3-.6-.6-.3-.3c-.2-.2-.4-.4-.7-.6-.1-.1-.3-.2-.4-.3-.2-.2-.4-.3-.6-.5-.3-.2-.6-.4-.8-.5-.1-.1-.2-.1-.3-.2-.4-.2-.9-.4-1.3-.6l-73.7-31c-6.9-2.9-14.8.3-17.7 7.2s.3 14.8 7.2 17.7l65.4 27.6v295.8c0 28 21 51.2 48.1 54.7-4.9 8.2-7.8 17.8-7.8 28 0 30.1 24.5 54.5 54.5 54.5s54.5-24.5 54.5-54.5c0-10-2.7-19.5-7.5-27.5h121.4c-4.8 8.1-7.5 17.5-7.5 27.5 0 30.1 24.5 54.5 54.5 54.5s54.5-24.5 54.5-54.5-24.5-54.5-54.5-54.5h-255c-15.6 0-28.2-12.7-28.2-28.2v-36.6c8.2 4.8 17.9 7.6 28.2 7.6zm67.2 111.6c0 15.2-12.4 27.5-27.5 27.5s-27.5-12.4-27.5-27.5 12.4-27.5 27.5-27.5 27.5 12.3 27.5 27.5zm215.4 0c0 15.2-12.4 27.5-27.5 27.5s-27.5-12.4-27.5-27.5 12.4-27.5 27.5-27.5 27.5 12.3 27.5 27.5zm-14.5-138.6h-268.1c-15.6 0-28.2-12.7-28.2-28.2v-145.9l324.5 44.7v101.1c0 15.7-12.7 28.3-28.2 28.3z"/></symbol><symbol viewBox="0 0 612 612" id="support" xmlns="http://www.w3.org/2000/svg"><path d="M257.938 336.072c0 17.355-14.068 31.424-31.423 31.424-17.354 0-31.422-14.068-31.422-31.424 0-17.354 14.068-31.423 31.422-31.423 17.355.001 31.423 14.07 31.423 31.423zm127.547-31.422c-17.354 0-31.423 14.068-31.423 31.424 0 17.354 14.069 31.422 31.423 31.422s31.424-14.068 31.424-31.422c-.001-17.355-14.069-31.424-31.424-31.424zM612 318.557v59.719c0 29.982-24.305 54.287-54.288 54.287h-39.394C479.283 540.947 379.604 606.412 306 606.412s-173.283-65.465-212.318-173.85H54.288C24.305 432.562 0 408.258 0 378.275v-59.719c0-20.631 11.511-38.573 28.46-47.758.569-84.785 25.28-151.002 73.553-196.779C149.895 28.613 218.526 5.588 306 5.588c87.474 0 156.105 23.025 203.987 68.43 48.272 45.777 72.982 111.995 73.553 196.779 16.949 9.186 28.46 27.128 28.46 47.76zm-114.901 17.714c0-13.969-.715-27.094-1.771-39.812-24.093-22.043-67.832-38.769-123.033-44.984 7.248 8.15 13.509 18.871 17.306 32.983-33.812-26.637-100.181-20.297-150.382-79.905a158.89 158.89 0 0 1-7.519-9.417c-.025-.035-.053-.062-.078-.096l.006.002c-8.931-12.078-11.976-19.262-12.146-11.31-1.473 68.513-50.034 121.925-103.958 129.46-.341 7.535-.62 15.143-.62 23.08 0 28.959 4.729 55.352 12.769 79.137 30.29 36.537 80.312 46.854 124.586 49.59 8.219-13.076 26.66-22.205 48.136-22.205 29.117 0 52.72 16.754 52.72 37.424 0 20.668-23.604 37.422-52.72 37.422-22.397 0-41.483-9.93-49.122-23.912-30.943-1.799-64.959-7.074-95.276-21.391C198.631 535.18 264.725 568.41 306 568.41c64.859 0 191.099-81.935 191.099-232.139zm53.756-72.002C547.4 116.318 462.951 38.162 306 38.162S64.601 116.318 61.145 264.269h20.887c7.637-49.867 23.778-90.878 48.285-122.412C169.37 91.609 228.478 66.13 306 66.13c77.522 0 136.63 25.479 175.685 75.727 24.505 31.533 40.647 72.545 48.284 122.412h20.886z"/></symbol><symbol viewBox="0 0 512 512" id="warranty" xmlns="http://www.w3.org/2000/svg"><path d="M373.44 318.229c.981-2.304 2.027-4.331 3.243-5.547 2.88-2.859 9.643-4.907 16.192-6.891 10.88-3.307 23.232-7.04 29.44-17.771 6.123-10.581 3.221-23.04.683-34.027-1.579-6.741-3.2-13.717-2.091-17.792.96-3.733 5.931-9.003 10.304-13.653C439.083 214.165 448 204.672 448 192s-8.917-22.165-16.789-30.549c-4.373-4.651-9.323-9.92-10.304-13.632-1.088-4.075.533-11.072 2.091-17.813 2.539-10.987 5.44-23.445-.683-34.048-6.208-10.731-18.539-14.464-29.44-17.749-6.549-1.984-13.291-4.032-16.171-6.891-2.88-2.859-4.907-9.621-6.891-16.171-3.285-10.88-7.019-23.211-17.749-29.419-10.645-6.165-23.061-3.264-34.069-.704-6.741 1.557-13.696 3.179-17.792 2.091-3.733-1.003-9.003-5.952-13.653-10.325C278.166 8.917 268.672 0 256 0c-12.651 0-22.144 8.917-30.528 16.789-4.672 4.373-9.941 9.323-13.675 10.325-4.096 1.109-11.072-.533-17.792-2.091-11.029-2.56-23.467-5.44-34.069.683-10.709 6.208-14.443 18.539-17.728 29.44-1.984 6.549-4.032 13.312-6.891 16.171-2.88 2.859-9.643 4.907-16.192 6.891-10.88 3.307-23.232 7.04-29.44 17.771-6.123 10.581-3.221 23.04-.683 34.027 1.579 6.741 3.2 13.717 2.091 17.792-.96 3.733-5.931 9.003-10.304 13.653C72.918 169.835 64 179.349 64 192s8.917 22.165 16.789 30.549c4.373 4.651 9.323 9.92 10.304 13.632 1.088 4.075-.533 11.072-2.091 17.813-2.539 10.987-5.44 23.445.683 34.048 6.208 10.731 18.539 14.464 29.44 17.749 6.549 1.984 13.291 4.032 16.171 6.891 1.216 1.216 2.261 3.221 3.243 5.525L64.811 497.259a10.678 10.678 0 0 0 2.581 11.883 10.69 10.69 0 0 0 7.275 2.859c1.621 0 3.243-.363 4.779-1.152l79.787-39.893 58.859 39.232c2.709 1.792 6.101 2.24 9.195 1.28a10.62 10.62 0 0 0 6.699-6.4l23.296-62.123 20.587 61.76a10.772 10.772 0 0 0 6.677 6.72 10.645 10.645 0 0 0 9.365-1.216l58.859-39.232 79.787 39.893a10.674 10.674 0 0 0 12.032-1.706 10.675 10.675 0 0 0 2.581-11.883l-73.73-179.052zm-127.424 93.995l-27.285 72.747-52.821-35.2c-3.221-2.112-7.296-2.389-10.688-.661L95.36 479.04l54.229-131.733c2.56 4.352 5.717 8.277 10.347 10.965 10.645 6.165 23.083 3.264 34.069.704 6.72-1.557 13.675-3.221 17.792-2.091 3.733 1.003 9.003 5.952 13.653 10.325 3.008 2.816 6.229 5.653 9.6 8.277.085.405.021.811.149 1.216l11.477 34.453c-.19.385-.51.663-.66 1.068zm9.963-49.557c-4.203 0-10.432-5.845-15.936-11.008-6.784-6.4-13.824-12.992-22.741-15.381-2.88-.768-5.781-1.088-8.704-1.088-6.464 0-13.013 1.536-19.392 3.008-6.827 1.6-15.275 3.563-18.56 1.621-3.435-1.984-5.867-10.027-8.021-17.131-2.731-9.067-5.547-18.432-12.224-25.088-6.656-6.656-16.021-9.493-25.088-12.224-7.104-2.133-15.147-4.565-17.152-8-1.899-3.307.064-11.755 1.643-18.56 2.155-9.301 4.373-18.901 1.92-28.139-2.411-8.917-9.003-15.936-15.381-22.741-5.184-5.504-11.029-11.733-11.029-15.936s5.867-10.432 11.029-15.936c6.379-6.784 12.992-13.824 15.381-22.741 2.453-9.216.235-18.816-1.92-28.117-1.579-6.805-3.541-15.253-1.643-18.539 2.005-3.435 10.048-5.867 17.173-8.021 9.067-2.731 18.411-5.568 25.088-12.224 6.635-6.635 9.472-16.021 12.224-25.067 2.155-7.104 4.587-15.168 8-17.152 3.349-1.877 11.776.064 18.539 1.643 9.259 2.155 18.837 4.395 28.117 1.92 8.917-2.389 15.957-9.003 22.763-15.381 5.483-5.163 11.712-11.008 15.915-11.008 4.203 0 10.432 5.845 15.936 11.008 6.784 6.4 13.824 12.992 22.741 15.381 9.259 2.475 18.859.235 28.096-1.92 6.805-1.6 15.275-3.541 18.56-1.621 3.435 1.984 5.867 10.027 8.021 17.131 2.731 9.067 5.547 18.432 12.224 25.088 6.656 6.656 16.021 9.493 25.088 12.224 7.104 2.133 15.147 4.565 17.152 8 1.899 3.307-.064 11.755-1.643 18.56-2.155 9.301-4.373 18.901-1.92 28.139 2.411 8.917 9.003 15.936 15.381 22.741 5.184 5.504 11.029 11.733 11.029 15.936s-5.867 10.432-11.029 15.936c-6.379 6.784-12.992 13.824-15.381 22.741-2.453 9.216-.235 18.816 1.92 28.117 1.579 6.805 3.541 15.253 1.643 18.539-2.005 3.435-10.048 5.867-17.173 8.021-9.067 2.731-18.411 5.568-25.088 12.224-6.635 6.635-9.472 16.021-12.224 25.067-2.155 7.104-4.587 15.168-8 17.152-3.285 1.899-11.755-.064-18.539-1.643-9.259-2.155-18.837-4.395-28.117-1.92-8.917 2.389-15.957 9.003-22.763 15.381-5.483 5.162-11.712 11.008-15.915 11.008zm100.779 86.464a10.607 10.607 0 0 0-10.688.661l-52.373 34.923-33.792-101.376c10.667-1.621 19.157-9.109 26.624-16.128 4.672-4.373 9.941-9.323 13.675-10.325 4.117-1.088 11.072.533 17.792 2.091 11.029 2.56 23.467 5.44 34.069-.683 4.608-2.667 7.765-6.613 10.325-10.965l54.229 131.733-59.861-29.931z"/><path d="M384 192c0-70.592-57.408-128-128-128s-128 57.408-128 128 57.408 128 128 128 128-57.408 128-128zM256 298.667c-58.816 0-106.667-47.851-106.667-106.667S197.184 85.333 256 85.333 362.667 133.184 362.667 192 314.816 298.667 256 298.667z"/></symbol></svg>