<?xml version="1.0" encoding="utf-8"?><svg xmlns="http://www.w3.org/2000/svg" xmlns:xlink="http://www.w3.org/1999/xlink"><symbol viewBox="0 0 696 197" id="Mir" xmlns="http://www.w3.org/2000/svg"><g fill-rule="evenodd"><path d="M502 89v108h60v-64h68c28.62-.212 52.93-18.494 62.098-44H502zM494 0c3.495 44.144 45.258 79 96.263 79h104.328a66.87 66.87 0 0 0 1.172-12.5c0-36.568-29.503-66.23-66-66.498L494 0zM405.2 77.95l.047-.101.006.001a3.6 3.6 0 0 1 6.746 1.65H412V196h60V0h-60c-7.609.253-16.205 5.837-19.401 12.69L344.85 115.087c-.117.419-.302.81-.54 1.16l-.016.034-.007-.002A4 4 0 0 1 337 114V.001h-60v196h60v-.022c7.525-.393 15.92-5.914 19.07-12.668l49.007-105.096c.037-.09.078-.178.123-.264zM181.153 81.3L146.086 196h-43.163L67.835 81.23A3.951 3.951 0 0 0 60 82v114H0V0h66.838c11.04 0 22.61 8.568 25.835 19.12l29.2 95.51c1.454 4.753 3.81 4.748 5.262 0l29.2-95.51C159.566 8.56 171.13 0 182.172 0H249v196h-60V81.95a3.95 3.95 0 0 0-7.847-.65z"/></g></symbol><symbol viewBox="0 0 86.001 86.001" id="chevron-left" xmlns="http://www.w3.org/2000/svg"><path d="M64.998 80.095a3.484 3.484 0 0 1 0 4.893 3.401 3.401 0 0 1-4.844 0l-39.151-39.54a3.486 3.486 0 0 1 0-4.895l39.15-39.539a3.4 3.4 0 0 1 4.844 0A3.487 3.487 0 0 1 65 5.907L29.294 43.001l35.704 37.094z"/></symbol><symbol viewBox="0 0 238.003 238.003" id="chevron-right" xmlns="http://www.w3.org/2000/svg"><path d="M181.776 107.719L78.705 4.648c-6.198-6.198-16.273-6.198-22.47 0s-6.198 16.273 0 22.47l91.883 91.883-91.883 91.883c-6.198 6.198-6.198 16.273 0 22.47s16.273 6.198 22.47 0l103.071-103.039a15.741 15.741 0 0 0 4.64-11.283c0-4.13-1.526-8.199-4.64-11.313z"/></symbol><symbol viewBox="-95 0 512 512" id="file" xmlns="http://www.w3.org/2000/svg"><path d="M307.23 296.082c-8.28 0-15 6.715-15 15V482H30V198.57h91.836c8.285 0 15-6.715 15-15V91.734h39.504c8.285 0 15-6.714 15-15s-6.715-15-15-15h-54.504c-4.746 0-7.586 1.325-10.606 4.395L4.395 172.965C2.613 174.84 0 177.425 0 183.57V497c0 8.285 6.715 15 15 15h292.23c8.286 0 15-6.715 15-15V311.082c0-8.285-6.714-15-15-15zM106.836 112.949v55.621H51.215zm0 0"/><path d="M260.2 61.965c-8.286 0-15 6.715-15 15v60.472c0 21.239 17.277 38.516 38.515 38.516s38.52-17.277 38.52-38.516V58.86C322.23 26.406 295.827 0 263.37 0s-58.86 26.406-58.86 58.86v162.566c0 32.453 26.403 58.86 58.86 58.86s58.86-26.407 58.86-58.86V189.32c0-8.28-6.715-15-15-15-8.286 0-15 6.72-15 15v32.106c0 15.914-12.946 28.86-28.86 28.86s-28.86-12.946-28.86-28.86V58.859C234.51 42.945 247.456 30 263.37 30s28.86 12.945 28.86 28.86v78.578c0 4.695-3.82 8.515-8.516 8.515-4.7 0-8.52-3.82-8.52-8.515V76.965c.004-8.285-6.71-15-14.996-15zm0 0"/></symbol><symbol viewBox="0 0 512 512" id="gift" xmlns="http://www.w3.org/2000/svg"><path d="M478.609 99.726H441.34c4.916-7.78 8.16-16.513 9.085-25.749C453.38 44.46 437.835 18 411.37 6.269c-24.326-10.783-51.663-6.375-71.348 11.479l-47.06 42.65c-9.165-10.024-22.34-16.324-36.962-16.324-14.648 0-27.844 6.32-37.011 16.375l-47.12-42.706C152.152-.111 124.826-4.502 100.511 6.275 74.053 18.007 58.505 44.476 61.469 73.992c.927 9.229 4.169 17.958 9.084 25.734H33.391C14.949 99.726 0 114.676 0 133.117v50.087c0 9.22 7.475 16.696 16.696 16.696h478.609c9.22 0 16.696-7.475 16.696-16.696v-50.087c-.001-18.441-14.95-33.391-33.392-33.391zm-272.696-5.565v5.565H127.37c-20.752 0-37.084-19.346-31.901-40.952 2.283-9.515 9.151-17.626 18.034-21.732 12.198-5.638 25.71-3.828 35.955 5.445l56.469 51.182c-.003.165-.014.327-.014.492zm211.381-24.617c-1.244 17.353-16.919 30.184-34.316 30.184h-76.891v-5.565c0-.197-.012-.392-.014-.589l55.594-50.391c8.554-7.753 20.523-11.372 31.587-8.072 15.877 4.736 25.201 18.238 24.04 34.433zM33.391 233.291v244.87c0 18.442 14.949 33.391 33.391 33.391h155.826V233.291H33.391zm256 0v278.261h155.826c18.442 0 33.391-14.949 33.391-33.391v-244.87H289.391z"/></symbol><symbol viewBox="0 0 54.757 54.757" id="location" xmlns="http://www.w3.org/2000/svg"><path d="M27.557 12c-3.859 0-7 3.141-7 7s3.141 7 7 7 7-3.141 7-7-3.141-7-7-7zm0 12c-2.757 0-5-2.243-5-5s2.243-5 5-5 5 2.243 5 5-2.243 5-5 5z"/><path d="M40.94 5.617A19.052 19.052 0 0 0 27.38 0a19.05 19.05 0 0 0-13.56 5.617c-6.703 6.702-7.536 19.312-1.804 26.952L27.38 54.757 42.721 32.6c5.755-7.671 4.922-20.281-1.781-26.983zm.159 25.814L27.38 51.243 13.639 31.4C8.44 24.468 9.185 13.08 15.235 7.031 18.479 3.787 22.792 2 27.38 2s8.901 1.787 12.146 5.031c6.05 6.049 6.795 17.437 1.573 24.4z"/></symbol><symbol viewBox="0 0 31.012 31.012" id="mail" xmlns="http://www.w3.org/2000/svg"><path d="M28.512 26.529H2.5a2.503 2.503 0 0 1-2.5-2.5V6.982c0-1.379 1.122-2.5 2.5-2.5h26.012c1.378 0 2.5 1.121 2.5 2.5v17.047c0 1.379-1.122 2.5-2.5 2.5zM2.5 5.482c-.827 0-1.5.673-1.5 1.5v17.047c0 .827.673 1.5 1.5 1.5h26.012c.827 0 1.5-.673 1.5-1.5V6.982c0-.827-.673-1.5-1.5-1.5H2.5z"/><path d="M15.506 18.018c-.665 0-1.33-.221-1.836-.662L.891 6.219a.5.5 0 1 1 .658-.754l12.778 11.137c.64.557 1.72.556 2.358 0L29.46 5.466a.497.497 0 0 1 .706.049.5.5 0 0 1-.048.705L17.342 17.355c-.506.442-1.171.663-1.836.663z"/></symbol><symbol viewBox="0 0 512 512" id="mastercard" xmlns="http://www.w3.org/2000/svg"><path d="M352.399 96.4c-34.986 0-68.75 11.436-96.398 32.418-27.651-20.983-61.414-32.418-96.4-32.418C71.597 96.4 0 167.996 0 256s71.597 159.6 159.601 159.6c34.986 0 68.75-11.436 96.4-32.417 27.648 20.982 61.411 32.417 96.398 32.417C440.403 415.6 512 344.004 512 256S440.403 96.4 352.399 96.4zM256 169.418a131.104 131.104 0 0 1 13.355 17.697h-26.711A131.028 131.028 0 0 1 256 169.418zm-27.255 47.697h54.51A128.34 128.34 0 0 1 288.339 241H223.66a128.296 128.296 0 0 1 5.085-23.885zM223.66 271h64.679a128.357 128.357 0 0 1-5.084 23.885h-54.51A128.296 128.296 0 0 1 223.66 271zm32.341 71.584a131.2 131.2 0 0 1-13.357-17.699h26.712a131.333 131.333 0 0 1-13.355 17.699zm96.398 43.016c-26.596 0-52.322-8.13-73.916-23.144 12.373-13.836 22.35-29.819 29.247-46.977 7.61-18.929 11.47-38.941 11.47-59.479 0-20.538-3.859-40.55-11.47-59.48-6.896-17.156-16.874-33.14-29.247-46.976 21.594-15.014 47.32-23.145 73.916-23.145C423.862 126.4 482 184.538 482 256s-58.138 129.6-129.601 129.6z"/></symbol><symbol viewBox="0 0 50 50" id="messenger" xmlns="http://www.w3.org/2000/svg"><path d="M25 2C12.348 2 2 11.598 2 23.5c0 6.508 3.133 12.285 8 16.219v8.937l1.469-.781 7.219-3.75C20.703 44.665 22.8 45 25 45c12.652 0 23-9.598 23-21.5S37.652 2 25 2zm0 2c11.645 0 21 8.758 21 19.5S36.645 43 25 43c-2.164 0-4.258-.313-6.219-.875l-.375-.094-.343.188L12 45.375v-6.563l-.375-.28C6.961 34.941 4 29.538 4 23.5 4 12.758 13.355 4 25 4zm-2.281 13.719l-12.032 12.75L21.5 24.406l5.781 6.188 11.875-12.875-10.531 5.906z"/></symbol><symbol viewBox="0 0 29.731 29.731" id="phone" xmlns="http://www.w3.org/2000/svg"><path d="M23.895 29.731c-1.237 0-2.731-.31-4.374-.93-3.602-1.358-7.521-4.042-11.035-7.556C4.971 17.73 2.287 13.81.928 10.208-.307 6.933-.31 4.245.921 3.015c.177-.177.357-.367.543-.563C2.587 1.271 3.856-.058 5.538.002 6.697.05 7.82.77 8.97 2.201c3.398 4.226 1.866 5.732.093 7.478l-.313.31c-.29.29-.838 1.633 4.26 6.731 1.664 1.664 3.083 2.882 4.217 3.619.714.464 1.991 1.166 2.515.642l.315-.318c1.744-1.769 3.25-3.296 7.473.099 1.431 1.15 2.15 2.272 2.198 3.433.069 1.681-1.27 2.953-2.452 4.075-.195.186-.385.366-.562.542-.611.612-1.588.919-2.819.919zM5.418 1C4.223 1 3.144 2.136 2.189 3.141c-.192.202-.378.398-.561.581-.917.916-.824 3.323.236 6.134 1.31 3.472 3.913 7.266 7.33 10.683 3.416 3.415 7.208 6.018 10.681 7.327 2.811 1.062 5.218 1.152 6.133.237.183-.183.379-.369.581-.56 1.027-.976 2.192-2.082 2.141-3.309-.035-.843-.649-1.75-1.825-2.695-3.519-2.83-4.503-1.831-6.135-.176l-.32.323c-.78.781-2.047.608-3.767-.51-1.193-.776-2.667-2.038-4.379-3.751-4.231-4.23-5.584-6.819-4.26-8.146l.319-.315c1.659-1.632 2.66-2.617-.171-6.138-.947-1.175-1.853-1.789-2.696-1.825L5.418 1z"/></symbol><symbol viewBox="0 0 31.357 31.357" id="question" xmlns="http://www.w3.org/2000/svg"><path d="M15.255 0c5.424 0 10.764 2.498 10.764 8.473 0 5.51-6.314 7.629-7.67 9.62-1.018 1.481-.678 3.562-3.475 3.562-1.822 0-2.712-1.482-2.712-2.838 0-5.046 7.414-6.188 7.414-10.343 0-2.287-1.522-3.643-4.066-3.643-5.424 0-3.306 5.592-7.414 5.592-1.483 0-2.756-.89-2.756-2.584C5.339 3.683 10.084 0 15.255 0zm-.211 24.406a3.492 3.492 0 0 1 3.475 3.476 3.49 3.49 0 0 1-3.475 3.476 3.49 3.49 0 0 1-3.476-3.476 3.491 3.491 0 0 1 3.476-3.476z"/></symbol><symbol viewBox="0 0 1000 1000" id="sample" xmlns="http://www.w3.org/2000/svg"><path d="M708.53 15.27c-5.4 3.6-29.93 21.6-54.45 39.83l-44.33 33.3-225 267.52C260.77 503.3 157.73 627.95 154.8 633.8c-7.65 15.52-7.2 40.05.9 55.57l6.07 11.48-13.05 12.83-12.82 12.82-10.13-4.5c-31.73-13.95-75.82-3.82-96.52 22.28-21.6 27.22-25.2 62.33-9.9 92.7 5.4 10.8 111.82 124.42 129.37 138.38 15.52 12.15 31.5 17.1 53.77 15.97 33.75-1.58 60.98-18.67 74.02-46.58 5.18-11.02 5.85-15.52 5.85-35.1 0-18.9-.9-24.08-5.17-32.63l-4.95-9.9 12.6-12.82 12.6-12.6 12.6 5.17c16.43 6.75 40.28 7.2 53.33 1.13 4.95-2.47 130.5-107.1 279-232.87l270-228.82 38.7-52.2c21.38-28.8 38.7-54.23 38.92-56.48 0-2.7-11.7-16.2-28.58-33.52C904.05 186.05 722.7 8.52 720.67 8.52c-1.12 0-6.52 2.93-12.14 6.75zm219.14 311.18l-35.55 46.35-266.4 225.23C417.37 773.97 357.08 823.7 350.1 825.5c-18.68 4.95-18.68 4.95-94.5-69.3-38.48-37.8-71.77-72.22-74.02-76.27-5.63-11.03-6.98-25.2-3.38-35.78 2.25-6.3 70.2-88.42 226.57-273.37L628.2 106.4l46.35-34.42 46.35-34.43 121.27 121.28L963.45 280.1l-35.78 46.35zM269.55 833.6l-11.92 11.92-52.2-52.2L153 740.9l11.7-11.7 11.92-11.92 52.2 52.2 52.42 52.42-11.69 11.7zm-151.43-88.2c7.88 3.83 22.27 16.42 46.58 40.95l35.55 35.55-43.42 43.42-43.43 43.43-36-36.67c-36.45-37.13-43.42-46.8-46.8-65.47-3.38-18.67 8.1-47.03 23.85-58.5 15.53-11.49 43.42-12.61 63.67-2.71zm79.43 160.2l-43.42 43.42-10.58-10.58-10.8-10.8 43.2-43.2 43.42-43.42 10.58 10.58 10.8 10.8-43.2 43.2zm63.22-10.35c6.3 19.13-6.07 49.5-25.65 63.23-11.02 7.65-30.15 11.92-43.87 9.9-20.02-2.92-20.25-2.47 22.5-45.22 21.6-21.6 40.27-39.15 41.63-38.7 1.12.44 3.6 5.16 5.39 10.79z"/><path d="M550.58 337.92c-15.75 5.63-31.28 19.35-55.8 49.27-.9 1.13-5.85-.9-10.8-4.27-12.38-8.1-29.7-9.9-42.08-4.05-21.38 9.9-41.4 39.38-50.63 74.02-5.85 21.83-7.2 76.95-2.25 99 4.73 22.05 17.1 44.55 31.95 58.28 15.75 14.62 28.13 19.35 50.63 19.35 49.05 0 83.25-35.55 108.9-113.17l10.13-30.83 24.75-.9c27.45-.68 43.88-5.4 67.95-19.58 21.15-12.38 47.92-40.73 58.05-61.2 12.6-25.43 13.72-47.7 2.92-57.83-8.77-8.1-18.45-5.63-34.2 8.55-4.72 4.28-13.27 9.68-18.9 12.15-9 4.05-12.6 4.5-29.48 2.92-10.57-1.13-25.43-1.8-33.07-2.02-13.5 0-13.73-.23-18.45-8.55-11.7-20.01-36.9-29.01-59.62-21.14zm31.27 28.13c4.72 2.93 8.55 7.88 11.25 15.3 5.85 16.2 6.97 17.1 18.9 15.3 10.13-1.8 15.3-1.8 55.8-.67 23.63.67 35.1-2.7 51.53-15.3 17.55-13.5-.68 18.68-24.08 42.08-30.38 30.36-69.08 44.54-100.58 36.66-13.95-3.6-14.85-3.38-18.67.45-2.02 2.48-9.22 20.02-15.75 39.15-19.8 58.28-37.35 85.95-63.23 100.13-15.52 8.33-34.42 9-48.38 1.8-45.66-24.08-53.54-126.9-13.94-182.03 7.88-11.25 18.9-18.9 26.32-18.9 3.15 0 9.45 4.73 16.65 12.15 10.8 11.25 14.4 13.5 20.93 12.83 1.57 0 6.98-6.98 12.38-15.08 11.7-18 33.52-40.73 43.2-44.77 10.12-4.5 19.57-4.05 27.67.9z"/></symbol><symbol viewBox="0 0 451 451" id="search" xmlns="http://www.w3.org/2000/svg"><path d="M447.05 428l-109.6-109.6c29.4-33.8 47.2-77.9 47.2-126.1C384.65 86.2 298.35 0 192.35 0 86.25 0 .05 86.3.05 192.3s86.3 192.3 192.3 192.3c48.2 0 92.3-17.8 126.1-47.2L428.05 447c2.6 2.6 6.1 4 9.5 4s6.9-1.3 9.5-4c5.2-5.2 5.2-13.8 0-19zM26.95 192.3c0-91.2 74.2-165.3 165.3-165.3 91.2 0 165.3 74.2 165.3 165.3s-74.1 165.4-165.3 165.4c-91.1 0-165.3-74.2-165.3-165.4z"/></symbol><symbol viewBox="0 0 486.569 486.569" id="shopping-cart" xmlns="http://www.w3.org/2000/svg"><path d="M146.069 320.369h268.1c30.4 0 55.2-24.8 55.2-55.2v-114c0-.2 0-.4-.1-.6 0-.2-.1-.5-.1-.7s-.1-.4-.1-.6c-.1-.2-.1-.4-.2-.7-.1-.2-.1-.4-.2-.6-.1-.2-.1-.4-.2-.6-.1-.2-.2-.4-.3-.7-.1-.2-.2-.4-.3-.5l-.3-.6c-.1-.2-.2-.3-.3-.5-.1-.2-.3-.4-.4-.6-.1-.2-.2-.3-.4-.5-.1-.2-.3-.3-.4-.5s-.3-.3-.4-.5-.3-.3-.4-.4l-.5-.5c-.2-.1-.3-.3-.5-.4-.2-.1-.4-.3-.6-.4-.2-.1-.3-.2-.5-.3s-.4-.2-.6-.4l-.6-.3-.6-.3-.6-.3c-.2-.1-.4-.1-.6-.2-.2-.1-.5-.2-.7-.2s-.4-.1-.5-.1c-.3-.1-.5-.1-.8-.1-.1 0-.2-.1-.4-.1l-339.8-46.9v-47.4c0-.5 0-1-.1-1.4 0-.1 0-.2-.1-.4 0-.3-.1-.6-.1-.9-.1-.3-.1-.5-.2-.8 0-.2-.1-.3-.1-.5l-.3-.9c0-.1-.1-.3-.1-.4-.1-.3-.2-.5-.4-.8-.1-.1-.1-.3-.2-.4-.1-.2-.2-.4-.4-.6-.1-.2-.2-.3-.3-.5s-.2-.3-.3-.5-.3-.4-.4-.6l-.3-.3-.6-.6-.3-.3c-.2-.2-.4-.4-.7-.6-.1-.1-.3-.2-.4-.3-.2-.2-.4-.3-.6-.5-.3-.2-.6-.4-.8-.5-.1-.1-.2-.1-.3-.2-.4-.2-.9-.4-1.3-.6l-73.7-31c-6.9-2.9-14.8.3-17.7 7.2s.3 14.8 7.2 17.7l65.4 27.6v295.8c0 28 21 51.2 48.1 54.7-4.9 8.2-7.8 17.8-7.8 28 0 30.1 24.5 54.5 54.5 54.5s54.5-24.5 54.5-54.5c0-10-2.7-19.5-7.5-27.5h121.4c-4.8 8.1-7.5 17.5-7.5 27.5 0 30.1 24.5 54.5 54.5 54.5s54.5-24.5 54.5-54.5-24.5-54.5-54.5-54.5h-255c-15.6 0-28.2-12.7-28.2-28.2v-36.6c8.2 4.8 17.9 7.6 28.2 7.6zm67.2 111.6c0 15.2-12.4 27.5-27.5 27.5s-27.5-12.4-27.5-27.5 12.4-27.5 27.5-27.5 27.5 12.3 27.5 27.5zm215.4 0c0 15.2-12.4 27.5-27.5 27.5s-27.5-12.4-27.5-27.5 12.4-27.5 27.5-27.5 27.5 12.3 27.5 27.5zm-14.5-138.6h-268.1c-15.6 0-28.2-12.7-28.2-28.2v-145.9l324.5 44.7v101.1c0 15.7-12.7 28.3-28.2 28.3z"/></symbol><symbol viewBox="0 0 612 612" id="support" xmlns="http://www.w3.org/2000/svg"><path d="M257.938 336.072c0 17.355-14.068 31.424-31.423 31.424-17.354 0-31.422-14.068-31.422-31.424 0-17.354 14.068-31.423 31.422-31.423 17.355.001 31.423 14.07 31.423 31.423zm127.547-31.422c-17.354 0-31.423 14.068-31.423 31.424 0 17.354 14.069 31.422 31.423 31.422s31.424-14.068 31.424-31.422c-.001-17.355-14.069-31.424-31.424-31.424zM612 318.557v59.719c0 29.982-24.305 54.287-54.288 54.287h-39.394C479.283 540.947 379.604 606.412 306 606.412s-173.283-65.465-212.318-173.85H54.288C24.305 432.562 0 408.258 0 378.275v-59.719c0-20.631 11.511-38.573 28.46-47.758.569-84.785 25.28-151.002 73.553-196.779C149.895 28.613 218.526 5.588 306 5.588c87.474 0 156.105 23.025 203.987 68.43 48.272 45.777 72.982 111.995 73.553 196.779 16.949 9.186 28.46 27.128 28.46 47.76zm-114.901 17.714c0-13.969-.715-27.094-1.771-39.812-24.093-22.043-67.832-38.769-123.033-44.984 7.248 8.15 13.509 18.871 17.306 32.983-33.812-26.637-100.181-20.297-150.382-79.905a158.89 158.89 0 0 1-7.519-9.417c-.025-.035-.053-.062-.078-.096l.006.002c-8.931-12.078-11.976-19.262-12.146-11.31-1.473 68.513-50.034 121.925-103.958 129.46-.341 7.535-.62 15.143-.62 23.08 0 28.959 4.729 55.352 12.769 79.137 30.29 36.537 80.312 46.854 124.586 49.59 8.219-13.076 26.66-22.205 48.136-22.205 29.117 0 52.72 16.754 52.72 37.424 0 20.668-23.604 37.422-52.72 37.422-22.397 0-41.483-9.93-49.122-23.912-30.943-1.799-64.959-7.074-95.276-21.391C198.631 535.18 264.725 568.41 306 568.41c64.859 0 191.099-81.935 191.099-232.139zm53.756-72.002C547.4 116.318 462.951 38.162 306 38.162S64.601 116.318 61.145 264.269h20.887c7.637-49.867 23.778-90.878 48.285-122.412C169.37 91.609 228.478 66.13 306 66.13c77.522 0 136.63 25.479 175.685 75.727 24.505 31.533 40.647 72.545 48.284 122.412h20.886z"/></symbol><symbol viewBox="0 -60 512 511" id="telegram" xmlns="http://www.w3.org/2000/svg"><path d="M507.773 7.293c-5.015-6.11-13.332-8.375-20.726-5.656L17.39 171.359C8.008 174.77 1.42 183.04.199 192.941c-1.21 9.856 3.133 19.418 11.281 24.922l67.133 45.828a21.13 21.13 0 0 0 21.832 1.243L246.07 188.14l-113.496 84.746c-5.328 3.98-8.512 10.328-8.512 16.976v78.5c0 8.098 4.442 15.516 11.59 19.367a22.028 22.028 0 0 0 22.61-1.015l51.004-33.832 50.156 34.199c4.394 3.012 9.629 4.598 14.91 4.598 1.785 0 3.578-.184 5.344-.551 7.043-1.469 13.273-5.82 17.097-11.938L509.262 28.81a18.598 18.598 0 0 0-1.489-21.516zm0 0"/></symbol><symbol viewBox="0 0 47.834 47.834" id="visa" xmlns="http://www.w3.org/2000/svg"><path d="M19.153 16.799l-2.431 14.266h3.888l2.433-14.266zm-5.691.016l-3.808 9.729-.406-1.469c-.751-1.77-2.883-4.312-5.386-5.914l3.482 11.897 4.114-.007 6.123-14.239-4.119.003z"/><path d="M7.772 17.836c-.226-.869-.881-1.128-1.694-1.159H.05l-.05.284c4.691 1.138 7.795 3.88 9.083 7.177l-1.311-6.302zm23.151 1.698a7.178 7.178 0 0 1 2.91.546l.351.165.526-3.092c-.77-.289-1.977-.599-3.483-.599-3.842 0-6.55 1.935-6.571 4.708-.025 2.049 1.929 3.193 3.405 3.876 1.515.7 2.023 1.145 2.016 1.77-.012.955-1.208 1.393-2.325 1.393-1.557 0-2.384-.215-3.661-.747l-.501-.228-.547 3.193c.91.399 2.589.742 4.332.76 4.087 0 6.743-1.912 6.771-4.875.017-1.621-1.02-2.858-3.267-3.873-1.36-.662-2.192-1.102-2.184-1.77 0-.593.706-1.227 2.228-1.227zm13.765-2.719h-3.004c-.933 0-1.627.254-2.037 1.184l-5.773 13.074h4.083s.666-1.758.817-2.143l4.979.006c.116.498.474 2.137.474 2.137h3.607l-3.146-14.258zm-4.795 9.195c.32-.819 1.549-3.987 1.549-3.987-.021.039.317-.825.518-1.362l.262 1.23.901 4.119h-3.23z"/></symbol><symbol viewBox="0 0 548.358 548.358" id="vk" xmlns="http://www.w3.org/2000/svg"><path d="M545.451 400.298c-.664-1.431-1.283-2.618-1.858-3.569-9.514-17.135-27.695-38.167-54.532-63.102l-.567-.571-.284-.28-.287-.287h-.288c-12.18-11.611-19.893-19.418-23.123-23.415-5.91-7.614-7.234-15.321-4.004-23.13 2.282-5.9 10.854-18.36 25.696-37.397 7.807-10.089 13.99-18.175 18.556-24.267 32.931-43.78 47.208-71.756 42.828-83.939l-1.701-2.847c-1.143-1.714-4.093-3.282-8.846-4.712-4.764-1.427-10.853-1.663-18.278-.712l-82.224.568c-1.332-.472-3.234-.428-5.712.144l-3.713.859-1.431.715-1.136.859c-.952.568-1.999 1.567-3.142 2.995-1.137 1.423-2.088 3.093-2.848 4.996-8.952 23.031-19.13 44.444-30.553 64.238-7.043 11.803-13.511 22.032-19.418 30.693-5.899 8.658-10.848 15.037-14.842 19.126-4 4.093-7.61 7.372-10.852 9.849-3.237 2.478-5.708 3.525-7.419 3.142-1.715-.383-3.33-.763-4.859-1.143-2.663-1.714-4.805-4.045-6.42-6.995-1.622-2.95-2.714-6.663-3.285-11.136-.568-4.476-.904-8.326-1-11.563-.089-3.233-.048-7.806.145-13.706.198-5.903.287-9.897.287-11.991 0-7.234.141-15.085.424-23.555.288-8.47.521-15.181.716-20.125.194-4.949.284-10.185.284-15.705s-.336-9.849-1-12.991a44.442 44.442 0 0 0-2.99-9.137c-1.335-2.95-3.289-5.232-5.853-6.852-2.569-1.618-5.763-2.902-9.564-3.856-10.089-2.283-22.936-3.518-38.547-3.71-35.401-.38-58.148 1.906-68.236 6.855-3.997 2.091-7.614 4.948-10.848 8.562-3.427 4.189-3.905 6.475-1.431 6.851 11.422 1.711 19.508 5.804 24.267 12.275l1.715 3.429c1.334 2.474 2.666 6.854 3.999 13.134 1.331 6.28 2.19 13.227 2.568 20.837.95 13.897.95 25.793 0 35.689-.953 9.9-1.853 17.607-2.712 23.127-.859 5.52-2.143 9.993-3.855 13.418-1.715 3.426-2.856 5.52-3.428 6.28-.571.76-1.047 1.239-1.425 1.427a21.387 21.387 0 0 1-7.71 1.431c-2.667 0-5.901-1.334-9.707-4-3.805-2.666-7.754-6.328-11.847-10.992-4.093-4.665-8.709-11.184-13.85-19.558-5.137-8.374-10.467-18.271-15.987-29.691l-4.567-8.282c-2.855-5.328-6.755-13.086-11.704-23.267-4.952-10.185-9.329-20.037-13.134-29.554-1.521-3.997-3.806-7.04-6.851-9.134l-1.429-.859c-.95-.76-2.475-1.567-4.567-2.427a30.301 30.301 0 0 0-6.567-1.854l-78.229.568c-7.994 0-13.418 1.811-16.274 5.428l-1.143 1.711c-.571.953-.859 2.475-.859 4.57 0 2.094.571 4.664 1.714 7.707 11.42 26.84 23.839 52.725 37.257 77.659 13.418 24.934 25.078 45.019 34.973 60.237 9.897 15.229 19.985 29.602 30.264 43.112 10.279 13.515 17.083 22.176 20.412 25.981 3.333 3.812 5.951 6.662 7.854 8.565l7.139 6.851c4.568 4.569 11.276 10.041 20.127 16.416 8.853 6.379 18.654 12.659 29.408 18.85 10.756 6.181 23.269 11.225 37.546 15.126 14.275 3.905 28.169 5.472 41.684 4.716h32.834c6.659-.575 11.704-2.669 15.133-6.283l1.136-1.431c.764-1.136 1.479-2.901 2.139-5.276.668-2.379 1-5 1-7.851-.195-8.183.428-15.558 1.852-22.124 1.423-6.564 3.045-11.513 4.859-14.846 1.813-3.33 3.859-6.14 6.136-8.418 2.282-2.283 3.908-3.666 4.862-4.142.948-.479 1.705-.804 2.276-.999 4.568-1.522 9.944-.048 16.136 4.429 6.187 4.473 11.99 9.996 17.418 16.56 5.425 6.57 11.943 13.941 19.555 22.124 7.617 8.186 14.277 14.271 19.985 18.274l5.708 3.426c3.812 2.286 8.761 4.38 14.853 6.283 6.081 1.902 11.409 2.378 15.984 1.427l73.087-1.14c7.229 0 12.854-1.197 16.844-3.572 3.998-2.379 6.373-5 7.139-7.851.764-2.854.805-6.092.145-9.712-.677-3.611-1.344-6.136-2.008-7.563z"/></symbol><symbol viewBox="0 0 512 512" id="warranty" xmlns="http://www.w3.org/2000/svg"><path d="M373.44 318.229c.981-2.304 2.027-4.331 3.243-5.547 2.88-2.859 9.643-4.907 16.192-6.891 10.88-3.307 23.232-7.04 29.44-17.771 6.123-10.581 3.221-23.04.683-34.027-1.579-6.741-3.2-13.717-2.091-17.792.96-3.733 5.931-9.003 10.304-13.653C439.083 214.165 448 204.672 448 192s-8.917-22.165-16.789-30.549c-4.373-4.651-9.323-9.92-10.304-13.632-1.088-4.075.533-11.072 2.091-17.813 2.539-10.987 5.44-23.445-.683-34.048-6.208-10.731-18.539-14.464-29.44-17.749-6.549-1.984-13.291-4.032-16.171-6.891-2.88-2.859-4.907-9.621-6.891-16.171-3.285-10.88-7.019-23.211-17.749-29.419-10.645-6.165-23.061-3.264-34.069-.704-6.741 1.557-13.696 3.179-17.792 2.091-3.733-1.003-9.003-5.952-13.653-10.325C278.166 8.917 268.672 0 256 0c-12.651 0-22.144 8.917-30.528 16.789-4.672 4.373-9.941 9.323-13.675 10.325-4.096 1.109-11.072-.533-17.792-2.091-11.029-2.56-23.467-5.44-34.069.683-10.709 6.208-14.443 18.539-17.728 29.44-1.984 6.549-4.032 13.312-6.891 16.171-2.88 2.859-9.643 4.907-16.192 6.891-10.88 3.307-23.232 7.04-29.44 17.771-6.123 10.581-3.221 23.04-.683 34.027 1.579 6.741 3.2 13.717 2.091 17.792-.96 3.733-5.931 9.003-10.304 13.653C72.918 169.835 64 179.349 64 192s8.917 22.165 16.789 30.549c4.373 4.651 9.323 9.92 10.304 13.632 1.088 4.075-.533 11.072-2.091 17.813-2.539 10.987-5.44 23.445.683 34.048 6.208 10.731 18.539 14.464 29.44 17.749 6.549 1.984 13.291 4.032 16.171 6.891 1.216 1.216 2.261 3.221 3.243 5.525L64.811 497.259a10.678 10.678 0 0 0 2.581 11.883 10.69 10.69 0 0 0 7.275 2.859c1.621 0 3.243-.363 4.779-1.152l79.787-39.893 58.859 39.232c2.709 1.792 6.101 2.24 9.195 1.28a10.62 10.62 0 0 0 6.699-6.4l23.296-62.123 20.587 61.76a10.772 10.772 0 0 0 6.677 6.72 10.645 10.645 0 0 0 9.365-1.216l58.859-39.232 79.787 39.893a10.674 10.674 0 0 0 12.032-1.706 10.675 10.675 0 0 0 2.581-11.883l-73.73-179.052zm-127.424 93.995l-27.285 72.747-52.821-35.2c-3.221-2.112-7.296-2.389-10.688-.661L95.36 479.04l54.229-131.733c2.56 4.352 5.717 8.277 10.347 10.965 10.645 6.165 23.083 3.264 34.069.704 6.72-1.557 13.675-3.221 17.792-2.091 3.733 1.003 9.003 5.952 13.653 10.325 3.008 2.816 6.229 5.653 9.6 8.277.085.405.021.811.149 1.216l11.477 34.453c-.19.385-.51.663-.66 1.068zm9.963-49.557c-4.203 0-10.432-5.845-15.936-11.008-6.784-6.4-13.824-12.992-22.741-15.381-2.88-.768-5.781-1.088-8.704-1.088-6.464 0-13.013 1.536-19.392 3.008-6.827 1.6-15.275 3.563-18.56 1.621-3.435-1.984-5.867-10.027-8.021-17.131-2.731-9.067-5.547-18.432-12.224-25.088-6.656-6.656-16.021-9.493-25.088-12.224-7.104-2.133-15.147-4.565-17.152-8-1.899-3.307.064-11.755 1.643-18.56 2.155-9.301 4.373-18.901 1.92-28.139-2.411-8.917-9.003-15.936-15.381-22.741-5.184-5.504-11.029-11.733-11.029-15.936s5.867-10.432 11.029-15.936c6.379-6.784 12.992-13.824 15.381-22.741 2.453-9.216.235-18.816-1.92-28.117-1.579-6.805-3.541-15.253-1.643-18.539 2.005-3.435 10.048-5.867 17.173-8.021 9.067-2.731 18.411-5.568 25.088-12.224 6.635-6.635 9.472-16.021 12.224-25.067 2.155-7.104 4.587-15.168 8-17.152 3.349-1.877 11.776.064 18.539 1.643 9.259 2.155 18.837 4.395 28.117 1.92 8.917-2.389 15.957-9.003 22.763-15.381 5.483-5.163 11.712-11.008 15.915-11.008 4.203 0 10.432 5.845 15.936 11.008 6.784 6.4 13.824 12.992 22.741 15.381 9.259 2.475 18.859.235 28.096-1.92 6.805-1.6 15.275-3.541 18.56-1.621 3.435 1.984 5.867 10.027 8.021 17.131 2.731 9.067 5.547 18.432 12.224 25.088 6.656 6.656 16.021 9.493 25.088 12.224 7.104 2.133 15.147 4.565 17.152 8 1.899 3.307-.064 11.755-1.643 18.56-2.155 9.301-4.373 18.901-1.92 28.139 2.411 8.917 9.003 15.936 15.381 22.741 5.184 5.504 11.029 11.733 11.029 15.936s-5.867 10.432-11.029 15.936c-6.379 6.784-12.992 13.824-15.381 22.741-2.453 9.216-.235 18.816 1.92 28.117 1.579 6.805 3.541 15.253 1.643 18.539-2.005 3.435-10.048 5.867-17.173 8.021-9.067 2.731-18.411 5.568-25.088 12.224-6.635 6.635-9.472 16.021-12.224 25.067-2.155 7.104-4.587 15.168-8 17.152-3.285 1.899-11.755-.064-18.539-1.643-9.259-2.155-18.837-4.395-28.117-1.92-8.917 2.389-15.957 9.003-22.763 15.381-5.483 5.162-11.712 11.008-15.915 11.008zm100.779 86.464a10.607 10.607 0 0 0-10.688.661l-52.373 34.923-33.792-101.376c10.667-1.621 19.157-9.109 26.624-16.128 4.672-4.373 9.941-9.323 13.675-10.325 4.117-1.088 11.072.533 17.792 2.091 11.029 2.56 23.467 5.44 34.069-.683 4.608-2.667 7.765-6.613 10.325-10.965l54.229 131.733-59.861-29.931z"/><path d="M384 192c0-70.592-57.408-128-128-128s-128 57.408-128 128 57.408 128 128 128 128-57.408 128-128zM256 298.667c-58.816 0-106.667-47.851-106.667-106.667S197.184 85.333 256 85.333 362.667 133.184 362.667 192 314.816 298.667 256 298.667z"/></symbol></svg>